# xmcd CD database file
#
# Track frame offsets:
#	150
#	28770
#	44652
#	66790
#	75369
#	87722
#	105576
#	148297
#	162003
#
# Disc length: 2357 seconds
#
# Revision: 2
# Processed by: cddbd v1.5.2PL0 Copyright (c) Steve Scherf et al.
# Submitted via: CDex 1.51
#
DISCID=77093309
DTITLE=Daniel Humair - Bonus Baby Boom
DYEAR=2008
DGENRE=Jazz
TTITLE0=Direction Technopole
TTITLE1=Bergen
TTITLE2=Aus de Banana
TTITLE3=Good Mood (Part 1)
TTITLE4=Pinocchio kicked in the leg
TTITLE5=Mood Indigo
TTITLE6=Vlada
TTITLE7=Butterfly me (Butterfly you)
TTITLE8=Good Mood (Part 2)
EXTD=YEAR: 2008
EXTT0=
EXTT1=
EXTT2=
EXTT3=
EXTT4=
EXTT5=
EXTT6=
EXTT7=
EXTT8=
PLAYORDER=
